<svg id="Layer_2" data-name="Layer 2" xmlns="http://www.w3.org/2000/svg" xmlns:xlink="http://www.w3.org/1999/xlink" viewBox="0 0 522.73 459.23"><defs><style>.cls-1{fill:#424242;}.cls-2{fill:url(#New_Gradient_Swatch_copy_12);}</style><radialGradient id="New_Gradient_Swatch_copy_12" cx="726.95" cy="168.34" r="841.34" gradientUnits="userSpaceOnUse"><stop offset="0" stop-color="#f1a421"/><stop offset="1" stop-color="#f1582e"/></radialGradient></defs><title>blogit</title><path class="cls-1" d="M721.75,367.8c-20.71-.66-41.43,8.69-58.14,20.72s-35.78,37.64-35.78,37.64l-22-11.5a.84.84,0,0,0-.91,1.41,308.26,308.26,0,0,0,34.74,22.84c8,.56,15.37-.22,20.89-.22,8.36,0,18.47,7.48,18.47,14.52,0,8.46-6.59,8.74-11.87,4.52-2.51-2-15.8-4.11-24.12-3.2-2.31.25-4.74.4-7.09.48a26.29,26.29,0,0,1-21.75-10.24l-.08-.11c-10.69-13.92-16-20.72-28.74-25.4l-.38-.14a1.25,1.25,0,0,0-1,2.3l1.58.74c20.05,9.36,19.83,23.17,19.83,23.17-12,34.75-54.58,58.36-54.58,58.36.93-37.35-26.81-47.43-43.93-50.1a.71.71,0,0,0-.31,1.38c25.41,7.76,39.35,32.6,36.67,47.16-5.8,31.41-50.8,36.09-45.45,39.43s45.45-8,68.17-7.35,22.05,19.38,8.69,21.39-96.24,2-108.94,0-1.36-25.41-31.41-62.82c-34.53-43-18.93-96.91-44.78-129.65-8.84-11.21-21.38-21.39-64.82,7.35-10.76,7.11-20.86,9.84-29.76,9.21q-.88,10-.9,20.31c0,126.81,102.81,229.62,229.62,229.62S753.36,526.81,753.36,400a231.73,231.73,0,0,0-2-30.57C744.52,370.3,734.23,368.21,721.75,367.8Z" transform="translate(-238.63 -170.38)"/><path class="cls-2" d="M262.63,309.66c14-46.78,97.57-60.81,145-26.73s29.63,131,29.63,131c-4.9,31.85,8.3,37.42,8.3,37.42s4.17-38.54,29.23-64.15c31.55-32.25,58.85-40,84.54-48,17.79-5.5,28.07-2.17,55.14-13.7,17.3-7.36,46.11-26.39,46.11-26.39-6.35-19.05,8.19-28.57,8.19-28.57,4.51.66,8.35,4.51,8.35,4.51-21.72,16.87-3.34,40.26-3.34,40.26-15-33.25,7.52-39.43,7.52-39.43,13.52,7.63,11.14,23.56,8.38,32.66,2.19-4.62,5.77-9.77,10.67-8.93,8.64,1.48,28.73,6.24,36.09,23.39,5.18,12.1,26.06,28.07,23.39,39.43,0,0,10.54-16.77-23.94-50.38-34.51-83.18-116.5-141.7-212.17-141.7a228.7,228.7,0,0,0-151.18,56.81c-41.71,4.15-109.91,17.13-128.35,57.78-20,44.18,20.37,71.89,20.39,71.9C258.67,344,257.39,327.13,262.63,309.66Z" transform="translate(-238.63 -170.38)"/></svg>